<svg width="687" height="515" viewBox="0 0 687 515" fill="none" xmlns="http://www.w3.org/2000/svg">
<path d="M233.358 514.139C265.976 514.139 292.419 511.672 292.419 508.628C292.419 505.583 265.976 503.116 233.358 503.116C200.74 503.116 174.297 505.583 174.297 508.628C174.297 511.672 200.74 514.139 233.358 514.139Z" fill="#C8DBFB"/>
<path d="M537.076 514.139C569.694 514.139 596.137 511.672 596.137 508.628C596.137 505.583 569.694 503.116 537.076 503.116C504.458 503.116 478.016 505.583 478.016 508.628C478.016 511.672 504.458 514.139 537.076 514.139Z" fill="#C8DBFB"/>
<path d="M662.083 119.425C661.93 118.353 661.777 117.434 661.471 116.363" stroke="#C8DBFB" stroke-linecap="round" stroke-linejoin="round"/>
<path d="M660.094 110.391C649.536 74.4109 615.875 77.9324 585.579 77.9324C552.836 77.9324 46.2308 79.0041 46.2308 79.0041C-4.72039 79.1572 0.175821 152.65 40.1106 152.65C63.0616 152.65 71.7829 195.673 32.1542 195.826C8.43818 195.826 7.67315 225.989 23.5858 232.113" stroke="#C8DBFB" stroke-linecap="round" stroke-linejoin="round" stroke-dasharray="3.99 3.99"/>
<path d="M26.3398 232.879C27.2579 233.032 28.3289 233.185 29.4 233.185" stroke="#C8DBFB" stroke-linecap="round" stroke-linejoin="round"/>
<path d="M35.6734 231.654C36.2854 235.634 33.6843 239.462 29.7061 240.075C25.7279 240.687 21.9028 238.084 21.2907 234.103C20.6787 230.123 23.2798 226.295 27.258 225.682C31.2362 225.07 35.0614 227.673 35.6734 231.654Z" fill="#5193F4"/>
<path d="M669.274 122.64C668.509 126.621 664.684 129.224 660.706 128.611C656.728 127.846 654.126 124.018 654.739 120.037C655.351 116.056 659.329 113.454 663.307 114.066C667.438 114.832 670.039 118.659 669.274 122.64Z" fill="#5193F4"/>
<path d="M110.341 178.066C109.269 184.037 107.739 189.855 105.903 195.52C101.925 207.922 96.2639 219.864 90.6027 231.654C87.6955 237.778 75.608 252.017 69.1817 254.773C69.9468 238.697 69.9468 220.017 68.1107 203.788C66.2746 188.171 71.9359 176.381 65.8156 161.836C65.0506 159.999 64.2855 158.162 63.3675 156.324C60.3074 149.434 57.2472 142.544 56.3292 135.042C55.1051 125.549 58.0122 114.832 66.1216 109.932C71.9359 106.411 79.5862 106.564 85.8595 109.32C92.1327 112.076 97.182 117.128 101.007 122.793C111.871 138.87 113.707 159.386 110.341 178.066Z" fill="#5193F4"/>
<path d="M81.881 126.162C93.8156 143.157 94.8866 162.755 95.9577 183.578C97.0287 204.247 91.9795 225.223 81.728 243.29" stroke="#0B43A4" stroke-miterlimit="10" stroke-linecap="round" stroke-linejoin="round"/>
<path d="M81.4224 438.351C73.007 430.848 64.5916 423.346 58.3184 414.006C52.9631 405.892 49.444 396.705 44.7008 388.131C41.6406 382.619 38.1215 377.26 36.2854 371.136C34.4493 365.012 34.9084 357.815 39.1925 353.222C43.6297 348.476 51.4331 347.71 57.5533 350.16C63.6736 352.61 68.2638 357.815 71.936 363.327C76.6792 370.677 79.8923 379.098 81.1164 387.672C82.3404 395.48 82.0344 403.595 83.2585 411.404C84.3295 418.753 86.7776 425.796 89.9908 432.379C92.7449 438.504 99.9362 449.221 101.772 455.499C96.57 458.255 84.9415 441.566 81.4224 438.351Z" fill="#00AD9F"/>
<path d="M52.0454 361.337C60.0018 364.858 63.2149 374.351 64.898 382.925C66.7341 392.724 66.428 403.289 70.8652 412.016C79.2806 428.705 90.2971 447.69 98.4064 453.355" stroke="#00AD9F" stroke-miterlimit="10" stroke-linecap="round" stroke-linejoin="round"/>
<path d="M40.1106 415.537C33.0723 412.781 23.8919 411.71 19.3017 417.681C15.6295 422.734 17.4656 429.93 20.0667 435.595C22.2088 440.494 24.9629 445.394 29.5531 447.997C32.7663 449.834 36.4384 450.293 39.9576 450.752C49.903 451.977 60.0015 452.59 70.0999 452.437C81.7284 452.437 95.958 457.183 105.597 464.532C93.5099 441.413 63.5206 424.877 40.1106 415.537Z" fill="#0056EC"/>
<path d="M27.8701 430.542C36.7445 430.848 45.6189 431.614 54.1873 434.064C62.9086 436.667 96.4171 451.977 101.619 458.561" stroke="#0B43A4" stroke-miterlimit="10" stroke-linecap="round" stroke-linejoin="round"/>
<path d="M116.155 368.227C107.128 353.988 91.5208 344.036 74.8431 341.892C62.4496 340.208 49.75 342.505 37.6625 339.902C24.8099 337.146 13.3344 329.031 6.60212 317.701C-0.130174 306.524 -1.81325 292.438 2.01192 279.883C4.91905 270.39 11.3453 261.357 20.8317 258.295C26.034 256.61 31.6952 256.917 36.8974 258.142C41.7937 259.366 46.2309 261.357 50.362 263.96C59.8484 269.931 67.4988 279.271 73.313 289.07C78.5153 298.103 91.5208 312.036 100.242 321.069C105.444 326.428 109.117 329.95 109.117 329.95C115.39 337.605 112.483 359.193 116.155 368.227Z" fill="#52D2BC"/>
<path d="M18.0776 285.854C47.7609 299.175 80.0453 316.782 101.007 341.586" stroke="#00AD9F" stroke-miterlimit="10" stroke-linecap="round" stroke-linejoin="round"/>
<path opacity="0.2" d="M103.914 338.217C103.914 338.217 59.6955 302.39 50.5151 263.96C60.0015 269.931 67.6519 279.271 73.4661 289.07C78.6684 298.103 91.6739 312.036 100.395 321.069C101.466 325.969 102.537 331.481 103.914 338.217Z" fill="#5275A0"/>
<path opacity="0.2" d="M105.904 195.673C101.925 208.075 96.2641 220.017 90.6029 231.807C87.6957 237.931 75.6082 252.17 69.1819 254.926C69.947 238.85 69.947 220.171 68.1109 203.941C66.2748 188.324 71.936 176.535 65.8158 161.989C65.0507 160.152 64.2857 158.315 63.3677 156.477C63.9797 156.63 64.4387 156.937 65.0507 157.09C75.1492 161.377 79.7394 172.094 80.6574 182.353C81.4225 190.927 79.8924 199.501 78.6683 207.922C78.2093 211.903 77.7503 215.884 78.5153 219.711C78.5153 219.711 78.5153 219.711 78.5153 219.864C79.5864 224.458 86.3187 224.151 87.0837 219.558L89.8378 205.319C90.6029 201.032 91.5209 196.592 95.0401 193.683C96.4171 192.458 98.2532 191.692 99.9363 191.845C102.843 191.692 104.679 193.377 105.904 195.673Z" fill="#5275A0"/>
<path d="M103.914 329.184C96.8762 292.744 93.204 287.079 96.2642 278.046C100.242 266.409 97.9472 254.62 101.619 242.984C105.292 231.194 107.893 218.639 104.833 206.697C103.914 202.869 101.925 198.888 97.4882 198.735C95.6521 198.735 93.9691 199.348 92.592 200.573C89.0728 203.482 88.1548 208.075 87.3898 212.209L84.7887 226.448C83.8706 231.041 77.2913 231.347 76.2203 226.754V226.601C75.3022 222.773 75.7613 218.793 76.3733 214.812C77.4443 206.238 79.1274 197.817 78.3624 189.243C77.4443 178.831 72.8541 168.267 62.7557 163.98C59.2365 162.448 55.1054 162.142 51.4332 163.061C40.8757 165.817 38.1216 176.075 39.8047 184.802C40.8757 190.927 43.7829 196.592 46.384 202.41C52.8103 216.343 48.0671 229.051 48.9851 244.362C51.2802 286.62 103.914 329.184 103.914 329.184Z" fill="#7EE8D4"/>
<path d="M56.9414 174.085C62.1436 199.96 67.3459 226.142 77.4443 250.639C80.3514 257.835 81.8815 267.175 98.8652 286.773" stroke="#00AD9F" stroke-miterlimit="10" stroke-linecap="round" stroke-linejoin="round"/>
<path d="M259.369 180.668C254.014 174.544 248.965 168.267 243.763 162.295C240.397 158.468 236.877 154.64 233.052 150.965C231.216 149.128 229.227 147.444 227.238 145.76C215.15 135.808 201.533 127.387 187.15 121.262C178.429 117.588 169.248 114.372 161.751 108.554C154.407 102.583 149.052 92.7839 151.5 83.5974C153.336 77.0137 158.844 71.808 165.27 69.5114C171.697 67.2147 178.888 67.3679 185.467 68.7458C204.134 72.7267 219.741 86.2002 230.298 102.124C230.451 102.43 230.757 102.736 230.91 103.042C238.713 114.985 244.069 128.152 248.812 141.626C250.342 145.913 251.719 150.353 253.249 154.64C255.544 160.917 262.123 174.238 259.369 180.668Z" fill="#5193F4"/>
<path d="M173.992 84.3629C194.342 88.1906 208.724 101.817 223.872 115.903C239.02 129.989 249.883 148.669 255.085 168.726" stroke="#0B43A4" stroke-miterlimit="10" stroke-linecap="round" stroke-linejoin="round"/>
<path opacity="0.2" d="M243.762 162.295C243.609 164.439 243.609 166.582 244.068 168.726C239.019 167.501 235.5 159.693 233.052 150.965C230.757 142.544 229.686 133.511 229.227 129.377C228.615 120.497 229.074 111.616 230.91 102.889C238.713 114.832 244.068 127.999 248.812 141.473C247.129 146.372 245.751 151.118 244.68 156.171C244.374 158.161 243.915 160.152 243.762 162.295Z" fill="#5275A0"/>
<path d="M279.107 88.8031C277.424 96.4586 272.834 103.042 268.703 109.779C266.56 113.301 264.571 116.975 262.735 120.65C256.768 132.439 252.178 144.841 249.118 157.702C248.2 161.989 247.588 165.97 248.353 170.257C238.254 167.96 234.276 139.482 233.664 130.908C232.44 115.597 235.041 99.9801 241.314 85.8941C244.068 79.7697 247.588 73.6453 253.096 69.8176C258.604 65.8368 266.254 64.4588 272.069 67.9803C275.588 69.9707 277.73 73.4922 278.801 77.32C279.872 80.9946 279.872 84.9754 279.107 88.8031Z" fill="#52D2BC"/>
<path d="M244.528 161.836C238.254 146.219 242.08 112.994 252.025 92.0184C255.085 85.7409 259.369 79.7697 265.337 76.2482" stroke="#00AD9F" stroke-miterlimit="10" stroke-linecap="round" stroke-linejoin="round"/>
<path opacity="0.2" d="M279.107 88.8032C277.424 96.4586 272.834 103.042 268.702 109.779C266.56 113.301 264.571 116.975 262.735 120.65C259.981 116.057 258.145 110.851 257.533 105.645C256.615 96.7649 260.134 87.2721 267.325 81.9133C270.692 79.4636 274.67 78.0856 278.801 77.4731C279.872 80.9946 279.872 84.9755 279.107 88.8032Z" fill="#5275A0"/>
<path d="M337.097 155.252C336.638 158.162 335.72 160.917 334.496 163.673C330.058 173.319 320.725 181.587 306.648 188.324C306.648 188.324 305.883 173.013 305.73 169.032C305.118 151.578 286.145 141.932 274.058 129.071C267.938 122.64 263.347 114.372 262.429 105.492C261.511 96.6117 265.031 87.119 272.222 81.7602C278.342 77.32 286.145 76.4014 293.643 77.0138C305.73 77.9324 317.818 82.985 325.315 92.4778C325.621 92.784 325.927 93.2433 326.233 93.5496C330.823 99.827 333.118 107.482 334.955 114.985C337.862 128.152 339.239 141.932 337.097 155.252Z" fill="#00AD9F"/>
<path d="M277.424 91.0999C290.582 97.8366 303.741 106.105 311.391 118.813C322.102 136.42 319.654 159.386 311.544 178.372" stroke="#00AD9F" stroke-miterlimit="10" stroke-linecap="round" stroke-linejoin="round"/>
<path d="M556.508 267.94C564.924 254.161 560.639 236.4 563.547 220.63C565.842 208.381 572.574 197.204 582.213 189.396C588.334 184.496 596.902 181.128 603.787 184.802C605.317 185.568 607.001 186.64 608.531 185.874C609.449 185.415 609.755 184.343 609.908 183.271C611.591 174.697 607.613 165.358 610.826 157.243C612.662 152.956 616.334 149.587 620.312 147.138C627.962 142.238 636.837 139.482 646.017 139.023C648.465 138.87 650.913 139.023 653.055 140.095C656.881 142.085 658.717 146.831 658.258 151.272C657.799 155.559 655.351 159.386 652.749 162.908C644.028 174.391 631.023 184.343 629.339 198.735C629.186 200.573 629.186 202.41 629.952 204.094C630.717 205.625 632.247 206.85 633.165 208.381C635.919 213.281 630.717 218.946 625.514 221.395C620.924 223.692 615.722 225.07 610.673 225.529C607.154 225.836 603.175 225.989 600.727 228.592C596.29 233.491 601.339 241.146 600.421 247.73C599.809 251.864 596.902 255.079 593.995 257.835C588.487 263.041 582.519 267.787 576.093 271.921C570.891 275.29 565.383 278.199 560.793 282.333C556.202 286.467 552.53 291.979 552.224 298.103" fill="#52D2BC"/>
<path d="M567.678 254.62C569.055 247.883 572.115 241.759 575.175 235.634C579.918 226.142 584.814 216.496 592.159 208.687C597.667 202.716 604.399 198.123 610.061 192.305C614.039 188.171 617.405 183.424 620.159 178.372C621.536 175.616 622.913 172.707 624.749 170.257C627.044 167.348 630.257 165.358 633.012 162.755C636.684 159.386 639.744 155.252 641.733 150.659" stroke="#00AD9F" stroke-miterlimit="10" stroke-linecap="round" stroke-linejoin="round"/>
<path d="M676.772 277.586C674.936 284.782 672.028 291.979 667.285 297.797C663.919 301.778 659.788 304.84 655.351 307.443C653.056 308.821 650.607 309.892 648.159 310.964C638.52 314.945 628.268 317.242 617.864 317.701C602.716 318.313 587.263 314.945 572.727 319.232C565.995 321.222 559.875 324.744 554.978 329.643C551.765 332.552 549.164 336.074 547.022 339.749L549.011 327.194C552.683 313.72 556.355 299.94 563.853 288.151C568.749 280.495 574.869 273.759 581.601 267.634C592.159 257.835 604.093 249.108 617.099 242.831C627.656 237.778 639.285 234.103 650.913 235.481C662.542 236.859 674.017 244.209 677.537 255.386C679.679 262.429 678.608 270.237 676.772 277.586Z" fill="#5193F4"/>
<path d="M558.65 317.548C569.82 301.165 586.345 288.457 605.164 282.18C616.946 278.199 629.339 276.821 641.121 273.299C653.056 269.931 664.837 264.113 671.875 253.854" stroke="#0B43A4" stroke-miterlimit="10" stroke-linecap="round" stroke-linejoin="round"/>
<path d="M565.995 438.044C566.607 421.202 575.328 405.585 586.038 392.418C594.913 381.394 605.47 371.442 618.629 366.389C622.76 364.858 627.35 363.787 631.634 364.858C635.919 365.93 639.744 369.605 639.897 374.045C639.897 377.72 637.449 381.088 634.848 383.691C626.126 392.418 614.957 397.93 604.552 404.207C586.498 415.078 569.361 429.623 562.169 449.528" fill="#52D2BC"/>
<path d="M572.574 423.346C583.59 398.695 612.049 376.801 630.869 374.045" stroke="#00AD9F" stroke-miterlimit="10" stroke-linecap="round" stroke-linejoin="round"/>
<path d="M559.109 451.518C558.956 448.762 568.137 441.26 570.279 439.422C581.754 429.011 595.525 421.356 609.907 416.762C615.722 414.925 621.995 413.547 627.809 415.078C633.623 416.456 638.979 421.356 639.591 427.633C640.203 433.757 636.072 439.729 630.869 442.791C625.667 445.7 619.547 446.159 613.58 445.853C604.552 445.394 595.678 443.097 586.65 443.097C577.623 443.097 564.771 444.016 559.109 451.518Z" fill="#00AD9F"/>
<path d="M568.442 442.944C586.956 432.839 614.956 426.408 635.306 428.858" stroke="#00AD9F" stroke-miterlimit="10" stroke-linecap="round" stroke-linejoin="round"/>
<path opacity="0.2" d="M337.096 155.252C336.637 158.161 335.719 160.917 334.495 163.673C328.069 149.893 322.255 131.827 320.878 109.779C320.572 103.808 322.102 97.6834 325.315 92.4777C325.621 92.7839 325.927 93.2432 326.233 93.5494C330.823 99.8269 333.118 107.482 334.954 114.985C337.861 128.152 339.238 141.932 337.096 155.252Z" fill="#5275A0"/>
<path d="M401.053 154.487C414.823 149.587 429.206 145.607 441.906 138.104C445.731 135.808 449.403 133.205 452.004 129.683C454.758 126.162 456.288 121.722 455.829 117.281C455.217 112.841 452.31 108.554 453.381 104.114C453.993 101.205 456.135 98.9083 457.818 96.4586C461.797 90.6404 463.021 82.985 460.879 76.0951C458.736 68.7459 453.228 62.9277 450.168 56.0378C447.567 50.3728 446.649 43.9422 447.567 37.8179C435.938 37.971 425.381 44.2484 413.905 46.392C405.184 48.0762 396.157 47.1575 387.435 49.1479C371.676 52.8225 358.823 66.6023 356.375 82.6788C349.031 81.4539 341.227 84.0568 336.025 89.4156C330.67 95.2337 327.61 103.348 328.069 111.31C331.588 168.573 364.484 198.582 364.484 198.582C364.484 198.582 395.851 156.324 401.053 154.487Z" fill="#7EE8D4"/>
<path d="M370.146 154.028C368.769 139.942 373.665 125.856 379.326 112.841C384.834 100.133 391.261 87.7314 399.676 76.8607C408.244 65.99 419.108 56.6503 431.807 51.2915" stroke="#00AD9F" stroke-miterlimit="10" stroke-linecap="round" stroke-linejoin="round"/>
<path d="M382.539 60.0187C381.162 72.5736 382.08 87.7314 385.447 100.133" stroke="#00AD9F" stroke-miterlimit="10" stroke-linecap="round" stroke-linejoin="round"/>
<path d="M387.741 95.54C402.124 86.3535 424.31 80.6884 441.294 81.6071" stroke="#00AD9F" stroke-miterlimit="10" stroke-linecap="round" stroke-linejoin="round"/>
<path d="M352.55 97.8367C369.84 105.186 370.605 130.602 371.064 137.798" stroke="#00AD9F" stroke-miterlimit="10" stroke-linecap="round" stroke-linejoin="round"/>
<path d="M375.654 121.722C388.965 112.229 408.091 109.32 422.168 112.841" stroke="#00AD9F" stroke-miterlimit="10" stroke-linecap="round" stroke-linejoin="round"/>
<path d="M411.916 53.4351C407.938 58.3345 406.867 64.1527 407.326 68.2866" stroke="#00AD9F" stroke-miterlimit="10" stroke-linecap="round" stroke-linejoin="round"/>
<path d="M410.999 64.612C417.119 61.5499 425.228 60.7843 433.95 62.9278" stroke="#00AD9F" stroke-miterlimit="10" stroke-linecap="round" stroke-linejoin="round"/>
<path d="M70.4057 92.4777C72.0888 92.3246 83.1052 84.2099 87.3894 81.4539C88.6135 80.6884 89.8375 79.9228 90.6025 78.6979C91.3676 77.4731 91.8266 75.942 91.2146 74.7171C90.4495 73.0329 89.2255 71.5018 86.0124 71.5018C80.5041 71.5018 78.515 73.3391 75.9139 76.0951C67.0395 85.1285 70.4057 92.4777 70.4057 92.4777Z" fill="#4A49CA"/>
<path d="M120.133 125.549C125.029 127.693 130.079 129.836 135.434 129.224C137.423 128.918 139.718 127.999 140.33 126.162C140.942 124.478 140.177 122.64 138.8 121.415C137.423 120.19 135.74 119.731 134.057 119.272C127.63 117.741 118.603 118.506 112.177 120.344C112.177 120.344 117.226 124.324 120.133 125.549Z" fill="#4A49CA"/>
<path d="M151.958 54.2005C149.816 52.8225 147.368 50.9852 147.368 48.5355C147.368 45.9326 149.969 44.0953 152.57 43.9422C155.171 43.7891 157.467 45.3202 159.456 47.0044C167.565 54.2005 166.647 62.3153 166.647 62.3153C166.647 62.3153 154.406 55.7316 151.958 54.2005Z" fill="#4A49CA"/>
<path d="M158.385 32.306C156.549 31.5404 154.56 30.4686 153.489 28.7844C152.877 27.8658 152.571 26.794 153.03 25.8754C153.642 24.3443 154.56 22.8132 158.538 23.5787C171.084 25.8754 173.839 34.4495 173.839 34.4495C173.839 34.4495 161.751 33.837 158.385 32.306Z" fill="#4A49CA"/>
<path d="M195.413 51.4445C200.462 50.9852 205.664 48.5355 208.877 44.5546C210.101 43.0235 211.172 41.3393 211.631 39.502C212.09 37.6647 211.631 35.5212 210.101 34.1432C208.265 32.6121 205.511 32.9184 203.522 34.1432C201.533 35.3681 200.309 37.5116 199.238 39.6551C198.014 42.5642 195.413 51.4445 195.413 51.4445Z" fill="#4A49CA"/>
<path d="M104.985 236.247C92.7448 225.376 80.5043 214.659 68.2637 203.788C61.6844 197.97 55.1052 192.152 50.974 184.496C42.0996 167.96 47.1488 146.525 59.2363 132.286C71.3239 117.894 88.9196 109.473 106.515 103.195C124.264 97.071 142.625 92.6309 159.456 84.5161C170.013 79.4635 180.724 71.8081 183.478 60.3249C185.161 53.435 183.784 45.9327 179.653 40.1145C175.521 34.4495 168.636 30.7749 161.598 30.3156" stroke="#0B43A4" stroke-miterlimit="10" stroke-linecap="round" stroke-linejoin="round"/>
<path d="M203.981 39.8083C200.614 50.0666 187.609 56.3441 181.642 65.2244" stroke="#0B43A4" stroke-miterlimit="10" stroke-linecap="round" stroke-linejoin="round"/>
<path d="M157.008 51.5977C159.609 54.3536 162.669 56.4971 164.964 59.5593C169.707 65.8368 170.166 76.0951 163.128 82.5256" stroke="#0B43A4" stroke-miterlimit="10" stroke-linecap="round" stroke-linejoin="round"/>
<path d="M91.0615 109.167C101.925 117.435 116.155 123.1 129.772 123.559" stroke="#0B43A4" stroke-miterlimit="10" stroke-linecap="round" stroke-linejoin="round"/>
<path d="M66.2749 124.324C61.2257 109.626 66.7339 92.0185 79.1275 82.6788" stroke="#0B43A4" stroke-miterlimit="10" stroke-linecap="round" stroke-linejoin="round"/>
<path d="M461.644 62.3152C461.032 60.4779 461.032 58.3344 462.409 56.9564C463.48 55.8846 465.316 55.4253 466.693 56.0377C477.404 60.7841 476.333 77.6261 476.333 77.6261C476.333 77.6261 466.081 75.9419 461.644 62.3152Z" fill="#4A49CA"/>
<path d="M461.491 93.7025C454.606 106.257 479.24 105.339 488.114 97.9896C488.114 97.9896 467.459 82.9849 461.491 93.7025Z" fill="#4A49CA"/>
<path d="M492.705 63.2339C491.022 60.9373 490.41 57.5689 492.246 55.2722C493.623 53.588 495.918 53.1287 498.06 53.588C500.202 54.0474 503.262 55.8847 504.639 57.5689C512.749 67.674 508.923 77.6261 508.923 77.6261C508.923 77.6261 495.459 67.0616 492.705 63.2339Z" fill="#4A49CA"/>
<path d="M590.935 94.4681C590.323 92.4777 590.476 90.1811 592.006 88.8031C592.924 87.8844 594.301 87.5782 595.678 87.7313C596.902 87.8844 598.126 88.3438 599.35 88.8031C601.798 90.028 603.787 92.0184 605.011 94.4681C608.072 100.746 605.929 108.554 605.929 108.554C605.929 108.554 592.465 99.3676 590.935 94.4681Z" fill="#4A49CA"/>
<path d="M560.028 117.434C555.59 113.607 549.011 112.382 543.656 114.831C542.279 115.444 541.055 116.209 540.137 117.434C538.148 120.19 538.913 124.018 540.902 126.774C542.891 129.377 545.951 131.061 549.011 132.439C554.519 134.889 563.088 135.501 568.902 136.879C568.902 136.879 568.902 125.243 560.028 117.434Z" fill="#4A49CA"/>
<path d="M469.448 65.0712C473.12 77.0137 483.371 86.0471 494.847 90.7935C506.322 95.6929 518.869 96.9178 531.415 97.6834C543.809 98.4489 556.356 98.9082 568.443 102.124C580.225 105.339 591.853 111.922 596.902 122.946C603.023 136.42 597.667 152.496 588.946 164.439C580.378 176.534 568.749 186.18 560.487 198.429C556.662 204.094 553.448 210.678 554.213 217.415C555.285 226.448 562.782 233.032 569.82 238.697" stroke="#0B43A4" stroke-miterlimit="10" stroke-linecap="round" stroke-linejoin="round"/>
<path d="M498.06 60.6311C506.322 69.8176 512.902 84.0568 514.432 96.1524" stroke="#0B43A4" stroke-miterlimit="10" stroke-linecap="round" stroke-linejoin="round"/>
<path d="M470.366 95.8461C475.109 97.071 479.852 98.2959 484.748 98.2959C489.645 98.2959 495.306 95.5399 498.825 92.1715" stroke="#0B43A4" stroke-miterlimit="10" stroke-linecap="round" stroke-linejoin="round"/>
<path d="M598.891 95.0806C603.328 99.3676 605.929 105.339 606.235 111.463C606.388 117.588 603.022 125.09 599.044 129.683" stroke="#0B43A4" stroke-miterlimit="10" stroke-linecap="round" stroke-linejoin="round"/>
<path d="M552.836 122.946C561.711 131.061 569.361 137.645 579.154 144.535C583.591 147.75 592.465 151.731 596.443 150.659" stroke="#0B43A4" stroke-miterlimit="10" stroke-linecap="round" stroke-linejoin="round"/>
<path opacity="0.2" d="M655.197 307.443C652.902 308.821 650.454 309.892 648.006 310.964C638.367 314.945 628.115 317.242 617.711 317.701C602.563 318.313 587.109 314.945 572.574 319.232C565.842 321.222 559.721 324.744 554.825 329.643C554.366 329.95 553.754 330.103 553.295 330.409C552.071 320.151 577.623 306.83 585.426 303.309C599.35 297.031 615.11 294.275 630.41 295.5C637.143 295.959 644.028 297.337 649.536 301.165C651.678 302.696 653.82 304.84 655.197 307.443Z" fill="#5275A0"/>
<path d="M630.257 301.471C636.99 301.931 643.875 303.309 649.383 307.136C654.891 310.964 658.87 317.701 657.493 324.438C655.962 332.093 648.006 337.146 640.356 338.064C632.552 338.983 624.749 336.839 617.099 335.308C600.115 331.787 582.672 331.021 565.382 333.012C561.098 333.471 556.967 334.39 553.295 336.533C552.071 326.275 577.623 312.954 585.426 309.433C599.35 303.155 614.957 300.246 630.257 301.471Z" fill="#52D2BC"/>
<path d="M559.874 329.95C572.574 318.773 605.011 311.27 628.115 313.72C635 314.486 642.039 316.476 647.394 321.069" stroke="#00AD9F" stroke-miterlimit="10" stroke-linecap="round" stroke-linejoin="round"/>
<path d="M536.158 204.707L659.941 204.4C674.476 204.4 686.258 216.19 686.258 230.735C686.258 245.28 674.476 257.07 659.941 257.07L575.328 257.223" stroke="#0B43A4" stroke-miterlimit="10" stroke-linecap="round" stroke-linejoin="round" stroke-dasharray="4 4"/>
<path d="M161.751 295.653L75.1493 295.806C66.8869 295.806 60.3076 302.543 60.3076 310.658C60.3076 318.926 67.0399 325.509 75.1493 325.509H100.395" stroke="#0B43A4" stroke-miterlimit="10" stroke-linecap="round" stroke-linejoin="round" stroke-dasharray="4 4"/>
<path d="M23.5857 362.715C-6.09761 362.715 -6.70964 406.963 31.083 406.963C68.8757 406.81 563.699 405.892 587.109 405.892C610.519 405.892 612.968 369.452 584.049 369.452C526.672 369.605 524.683 342.198 556.661 342.045" stroke="#C8DBFB" stroke-miterlimit="10" stroke-linecap="round" stroke-linejoin="round" stroke-dasharray="4 4"/>
<path d="M30.4707 361.49C31.0828 365.471 28.4817 369.299 24.5035 369.911C20.5253 370.524 16.7001 367.921 16.0881 363.94C15.4761 359.959 18.0772 356.131 22.0554 355.519C26.0335 354.906 29.8587 357.509 30.4707 361.49Z" fill="#5193F4"/>
<path d="M570.738 342.198C571.35 346.179 568.749 350.007 564.771 350.619C560.792 351.232 556.967 348.629 556.355 344.648C555.743 340.667 558.344 336.84 562.322 336.227C566.301 335.615 570.126 338.217 570.738 342.198Z" fill="#0B43A4"/>
<path opacity="0.2" d="M578.694 470.197L118.297 471.116C112.177 471.116 107.128 466.217 107.128 459.939L106.516 154.793C106.516 148.669 111.412 143.616 117.685 143.616L578.082 142.698C584.202 142.698 589.252 147.597 589.252 153.874L589.864 459.02C589.864 465.145 584.968 470.197 578.694 470.197Z" fill="#5275A0"/>
<path d="M569.82 464.379L109.423 465.298C103.302 465.298 98.2531 460.398 98.2531 454.121L97.6411 148.975C97.6411 142.851 102.537 137.798 108.811 137.798L569.208 136.879C575.328 136.879 580.377 141.779 580.377 148.056L580.989 453.202C580.836 459.327 575.94 464.379 569.82 464.379Z" fill="white"/>
<path d="M568.29 136.879L109.881 137.951C103.149 137.951 97.7939 143.463 97.7939 150.047V160.611L580.377 159.539V148.975C580.377 142.391 575.022 136.879 568.29 136.879Z" fill="#0056EC"/>
<path d="M110.494 465.298L179.806 465.145L179.041 160.458L97.6411 160.611L98.2531 453.202C98.4061 459.939 103.761 465.298 110.494 465.298Z" fill="#C8DBFB"/>
<path d="M569.208 139.942C573.645 139.942 577.317 143.616 577.317 148.056L577.929 453.202C577.929 455.346 577.164 457.336 575.634 458.867C574.104 460.398 572.115 461.164 569.973 461.317L109.576 462.236C105.138 462.236 101.466 458.561 101.466 454.121L100.701 148.975C100.701 146.831 101.466 144.841 102.996 143.31C104.526 141.779 106.516 141.013 108.658 140.86L569.208 139.942ZM569.208 136.879L108.811 137.951C102.69 137.951 97.6411 143.004 97.6411 149.128L98.2531 454.274C98.2531 460.398 103.302 465.451 109.423 465.451L569.82 464.532C575.94 464.532 580.989 459.48 580.989 453.355L580.377 148.209C580.377 141.932 575.328 136.879 569.208 136.879Z" fill="#0056EC"/>
<path d="M168.024 442.025L114.625 442.178C112.329 442.178 110.34 440.341 110.34 437.891V437.432C110.34 435.136 112.176 433.145 114.625 433.145L168.024 432.992C170.319 432.992 172.308 434.829 172.308 437.279V437.738C172.308 440.188 170.472 442.025 168.024 442.025Z" fill="white"/>
<path d="M161.598 235.175L116.155 235.328C111.871 235.328 108.352 231.807 108.352 227.52L108.199 182.047C108.199 177.759 111.718 174.238 116.002 174.238L161.445 174.085C165.729 174.085 169.248 177.606 169.248 181.893L169.401 227.367C169.401 231.807 165.882 235.175 161.598 235.175Z" fill="white"/>
<path d="M356.222 371.442L197.86 371.748C194.8 371.748 192.352 369.299 192.352 366.237V365.471C192.352 362.409 194.8 359.959 197.86 359.959L356.222 359.653C359.282 359.653 361.73 362.103 361.73 365.165V365.93C361.73 368.993 359.282 371.442 356.222 371.442Z" fill="#C8DBFB"/>
<path d="M347.042 190.927L221.883 191.233C218.823 191.233 216.375 188.783 216.375 185.721V184.956C216.375 181.893 218.823 179.444 221.883 179.444L347.042 179.137C350.102 179.137 352.55 181.587 352.55 184.649V185.415C352.55 188.477 350.102 190.927 347.042 190.927Z" fill="#C8DBFB"/>
<path d="M544.88 317.548L378.102 317.854C375.042 317.854 372.594 315.404 372.594 312.342V311.577C372.594 308.515 375.042 306.065 378.102 306.065L544.88 305.759C547.94 305.759 550.388 308.208 550.388 311.27V312.036C550.388 315.098 547.94 317.548 544.88 317.548Z" fill="#C8DBFB"/>
<path d="M356.222 395.94L197.86 396.246C194.8 396.246 192.352 393.796 192.352 390.734V389.968C192.352 386.906 194.8 384.456 197.86 384.456L356.222 384.15C359.282 384.15 361.73 386.6 361.73 389.662V390.428C361.73 393.49 359.282 395.94 356.222 395.94Z" fill="#C8DBFB"/>
<path d="M356.222 420.437L197.86 420.743C194.8 420.743 192.352 418.293 192.352 415.231V414.466C192.352 411.404 194.8 408.954 197.86 408.954L356.222 408.648C359.282 408.648 361.73 411.097 361.73 414.16V414.925C361.883 417.834 359.282 420.437 356.222 420.437Z" fill="#C8DBFB"/>
<path d="M541.361 436.36L381.775 436.667C376.726 436.667 372.594 432.533 372.594 427.48L372.441 358.887C372.441 353.835 376.573 349.701 381.622 349.701L541.208 349.394C546.257 349.394 550.388 353.528 550.388 358.581L550.541 427.174C550.541 432.226 546.563 436.36 541.361 436.36Z" fill="#C8DBFB"/>
<path d="M124.264 148.975C124.264 151.118 122.581 152.956 120.439 152.956C118.297 152.956 116.461 151.272 116.461 149.128C116.461 146.985 118.144 145.147 120.286 145.147C122.428 145.147 124.264 146.831 124.264 148.975Z" fill="#C8DBFB"/>
<path d="M136.964 152.803C139.076 152.803 140.789 151.089 140.789 148.975C140.789 146.861 139.076 145.147 136.964 145.147C134.851 145.147 133.139 146.861 133.139 148.975C133.139 151.089 134.851 152.803 136.964 152.803Z" fill="#C8DBFB"/>
<path d="M157.314 148.975C157.314 151.118 155.631 152.956 153.488 152.956C151.346 152.956 149.51 151.272 149.51 149.128C149.51 146.985 151.193 145.147 153.335 145.147C155.631 144.994 157.314 146.678 157.314 148.975Z" fill="#C8DBFB"/>
<path d="M210.307 186.533C210.93 180.307 206.391 174.754 200.169 174.13C193.947 173.507 188.398 178.048 187.775 184.275C187.152 190.501 191.69 196.054 197.912 196.677C204.134 197.301 209.683 192.759 210.307 186.533Z" fill="#C8DBFB"/>
<path d="M164.811 244.821H114.778C113.554 244.821 112.636 243.902 112.636 242.678V242.371C112.636 241.146 113.554 240.228 114.778 240.228L164.658 240.075C165.882 240.075 166.8 240.993 166.8 242.218V242.524C166.953 243.902 165.882 244.821 164.811 244.821Z" fill="white"/>
<path d="M164.811 254.314L114.931 254.467C113.707 254.467 112.789 253.548 112.789 252.323V252.017C112.789 250.792 113.707 249.874 114.931 249.874L164.811 249.721C166.035 249.721 166.953 250.639 166.953 251.864V252.17C166.953 253.395 166.035 254.314 164.811 254.314Z" fill="white"/>
<path d="M222.036 274.524L207.959 274.677L208.112 333.931H195.871C191.587 333.931 188.068 330.409 188.068 326.122L187.915 216.649C187.915 212.362 191.434 208.841 195.718 208.688H221.883L222.036 274.524Z" fill="#C8DBFB"/>
<path d="M313.687 208.534V210.065C317.971 210.065 321.337 213.434 321.337 217.721L321.49 324.438C321.49 326.428 320.725 328.419 319.195 329.797C317.818 331.174 315.829 332.093 313.84 332.093L197.096 332.399C192.811 332.399 189.445 329.031 189.445 324.744L189.292 218.027C189.292 216.037 190.057 214.046 191.587 212.668C192.964 211.29 194.954 210.372 196.943 210.372L313.687 210.065V208.534ZM313.687 208.534L196.943 208.841C191.893 208.841 187.762 212.974 187.762 218.027L187.915 324.744C187.915 329.797 192.046 333.93 197.096 333.93L313.84 333.624C318.889 333.624 323.02 329.49 323.02 324.438L322.867 217.721C322.867 212.515 318.736 208.534 313.687 208.534Z" fill="#C8DBFB"/>
<path d="M508.464 296.419L352.856 261.204C347.96 260.132 344.747 255.079 345.971 250.18L363.414 172.707C364.485 167.807 369.534 164.592 374.43 165.817L530.038 201.032C534.934 202.104 538.147 207.156 536.923 212.056L519.481 289.376C518.409 294.428 513.513 297.491 508.464 296.419Z" fill="#C8DBFB"/>
<path d="M207.194 507.25H185.467L180.112 479.537L212.549 479.384L207.194 507.25Z" fill="#0056EC"/>
<path d="M186.232 479.384C186.232 481.681 185.773 485.508 187.303 485.508C188.833 485.508 188.221 481.834 189.904 481.987C190.975 481.987 189.445 494.082 193.576 494.389C196.483 494.542 195.871 488.57 196.177 484.743C196.33 482.14 199.697 482.599 199.697 484.436C199.697 486.274 199.544 487.652 199.697 489.795C199.85 493.47 205.358 492.398 205.205 487.652C205.052 482.905 205.205 479.537 205.205 479.537L186.232 479.384Z" fill="#C8DBFB"/>
<path d="M181.03 496.225C180.571 496.225 180.112 496.225 179.806 496.072C178.276 495.766 177.052 494.847 176.44 493.623C174.145 488.876 180.112 480.149 180.265 479.69L180.571 481.221C180.571 481.374 175.369 488.876 177.358 493.163C177.817 494.235 178.735 494.847 179.959 495C180.265 495 180.724 495.154 181.03 495.154C188.833 495.154 202.298 480.455 202.451 480.302C203.063 479.69 203.981 480.302 203.675 480.761C203.063 481.527 189.445 496.225 181.03 496.225Z" fill="#0C2340"/>
<path opacity="0.2" d="M409.775 116.516C378.867 115.291 336.179 138.257 351.326 194.295C351.02 199.042 353.774 202.41 356.834 201.491C359.895 200.573 357.14 191.539 357.14 191.539C362.343 149.894 371.982 142.697 388.354 142.851L426.759 142.697C436.245 144.075 453.535 150.812 456.136 184.037L465.622 185.874C466.387 161.836 460.573 118.506 409.775 116.516Z" fill="#5275A0"/>
<path d="M409.775 111.616C378.867 110.391 336.179 133.358 351.326 189.396L357.14 186.64C362.343 144.994 371.982 137.798 388.354 137.951L426.759 137.798C436.245 139.176 453.994 147.597 456.595 180.975H465.622C466.387 156.937 460.573 113.607 409.775 111.616Z" fill="#EF832B"/>
<path d="M403.501 112.535L398.911 122.64C398.911 122.64 399.523 128.305 405.031 128.152C410.54 127.999 411.305 125.396 411.305 125.396L412.07 113.76L403.501 112.535Z" fill="#FFB9A3"/>
<path d="M427.065 104.114C421.862 113.454 419.567 116.21 412.682 117.588C403.808 119.425 393.862 113.454 398.452 98.6021C402.278 86.5065 407.939 88.3438 413.6 88.8031C419.108 89.4156 432.726 94.162 427.065 104.114Z" fill="#FFB9A3"/>
<path d="M406.256 96.7648C404.879 95.9993 403.043 96.6117 401.972 97.8366C400.901 99.0614 400.289 100.746 400.748 102.277C398.606 102.277 396.77 104.42 396.923 106.564C395.392 103.195 396.31 99.5208 396.004 96.1524C395.698 92.6309 396.157 88.8031 398.3 86.2003C399.218 85.1285 400.442 84.2099 401.666 83.5974C406.562 80.9946 412.529 80.9946 417.425 83.4443C418.496 83.9037 420.945 85.5879 424.464 84.6692C431.196 82.985 435.174 87.5783 431.043 91.8653C432.42 92.3247 433.797 92.9371 434.409 94.162C434.562 94.4682 434.562 94.9275 434.409 95.2337C434.256 95.3868 433.95 95.5399 433.797 95.693C432.726 96.1524 431.349 96.1524 430.278 95.9993C430.737 96.4586 433.185 96.6117 433.95 97.9897C435.939 101.817 427.983 99.9801 426.759 99.5208C428.136 99.827 431.808 102.736 430.584 104.726C430.278 105.186 425.382 107.942 420.18 101.971C418.955 100.593 417.425 99.2146 415.742 98.7552C414.365 98.449 412.835 98.9083 411.458 99.3677C410.54 99.6739 407.939 101.205 407.174 100.286C406.868 99.2146 407.939 97.6835 406.256 96.7648Z" fill="#0C2340"/>
<path d="M457.513 181.128C456.136 185.874 454.759 186.333 456.442 187.099C458.125 187.865 459.502 185.262 459.502 185.262L467.152 186.793C467.152 186.793 465.469 181.74 464.245 181.128C463.021 180.515 457.513 181.128 457.513 181.128Z" fill="#FFB9A3"/>
<path d="M357.293 186.64C358.364 189.089 358.517 189.089 359.895 192.152C362.496 197.817 356.375 207.003 352.397 197.051C351.326 194.295 351.326 189.396 351.326 189.396L357.293 186.64Z" fill="#FFB9A3"/>
<path d="M417.272 84.0568C422.474 84.3631 429.053 80.6885 433.031 85.4348C433.337 85.8942 434.102 85.2817 433.796 84.8224C429.818 79.1574 422.627 83.4444 417.119 83.2913C416.66 83.1382 416.66 84.0568 417.272 84.0568Z" fill="#0C2340"/>
<path d="M419.261 81.1477C415.742 81.7602 412.223 80.076 408.55 80.6884C405.643 81.1477 403.042 82.6788 400.747 84.5161C400.135 84.9755 400.9 86.0472 401.512 85.5879C404.572 83.5975 407.632 81.7602 411.457 82.0664C414.212 82.2195 416.66 83.1382 419.414 82.2195C420.332 82.0664 420.026 81.1477 419.261 81.1477Z" fill="#0C2340"/>
<path d="M398.911 86.0472C396.31 87.5783 394.933 89.7218 394.627 92.784C394.474 94.9275 394.321 99.9801 396.463 101.205C396.922 101.511 397.534 100.746 397.075 100.439C395.698 99.0615 395.545 95.2338 395.698 93.3965C395.851 90.6405 397.075 88.497 399.217 86.8128C399.676 86.5066 399.37 85.8941 398.911 86.0472Z" fill="#0C2340"/>
<path d="M437.774 94.7744C436.55 92.4778 433.184 90.4874 430.583 92.0185C430.124 92.1716 430.43 92.784 430.736 92.9371C431.807 92.9371 432.878 92.784 433.949 93.0902C435.173 93.3965 436.244 94.162 437.009 95.2338C437.315 95.54 437.927 95.2338 437.774 94.7744Z" fill="#0C2340"/>
<path d="M267.479 328.265C283.697 334.237 297.774 352.916 294.561 366.39C290.889 381.7 280.331 388.284 280.331 388.284L276.965 382.16C276.965 382.16 285.38 368.992 284.615 362.715C283.391 352.763 270.845 346.026 270.845 346.026L267.479 328.265Z" fill="#0B43A4"/>
<path d="M227.543 500.819C227.543 500.819 217.598 504.8 215.15 507.097H234.888V500.819H227.543Z" fill="#0C2340"/>
<path d="M271.15 500.513C271.15 500.513 273.904 503.728 274.516 507.097H261.052C261.358 504.8 262.276 502.656 263.5 500.513H271.15Z" fill="#0C2340"/>
<path d="M271.916 500.819H262.735C262.888 489.948 260.746 453.049 258.451 425.336C257.227 409.107 255.85 396.093 255.238 393.49L260.134 392.418L278.801 388.284C282.014 402.83 274.67 469.585 271.916 500.819Z" fill="#047F76"/>
<path d="M238.101 393.03C230.91 404.361 229.074 485.968 226.014 501.125L234.735 501.585C234.735 501.585 244.68 450.14 266.101 392.112L238.101 393.03Z" fill="#009790"/>
<path opacity="0.2" d="M269.927 392.112C265.643 403.595 261.97 414.772 258.604 425.336C257.38 409.107 256.003 396.093 255.391 393.49L260.287 392.418L269.927 392.112Z" fill="#5275A0"/>
<path d="M238.101 393.03C230.91 404.361 229.074 485.968 226.014 501.125L234.735 501.585C234.735 501.585 244.68 450.14 266.101 392.112L238.101 393.03Z" fill="#009790"/>
<path d="M243.609 301.778C243.609 301.778 238.101 323.06 252.024 323.06L251.259 328.572L261.817 329.797L259.522 322.141C259.522 322.141 261.664 308.821 261.817 306.371C261.97 301.778 249.423 293.816 243.609 301.778Z" fill="#FFB9A3"/>
<path d="M209.166 277.889L205.035 277.897L205.069 295.199L209.2 295.19L209.166 277.889Z" fill="#0C2340"/>
<path d="M218.975 277.893H195.412C193.729 277.893 192.352 276.515 192.352 274.984V274.371C192.352 272.687 193.729 271.309 195.412 271.309H218.975C220.658 271.309 222.035 272.687 222.035 274.218V274.83C221.882 276.515 220.505 277.893 218.975 277.893Z" fill="#0056EC"/>
<path d="M203.981 299.787C203.828 295.806 200.615 296.878 202.451 290.448C203.522 286.467 211.784 291.06 210.713 293.816C209.642 296.572 208.571 300.859 208.571 300.859L203.981 299.787Z" fill="#FFB9A3"/>
<path d="M252.178 327.194C231.369 328.572 229.992 335.615 220.658 334.543C206.888 332.859 209.336 307.29 211.019 298.103H202.757C202.757 298.103 187.915 356.591 234.888 345.72C233.052 355.978 244.834 372.667 233.511 393.031C251.413 397.93 267.938 399.002 282.167 392.877C279.719 389.509 287.216 355.519 272.375 331.021C269.315 326.275 253.708 327.041 252.178 327.194Z" fill="#0056EC"/>
<path d="M252.178 327.194C231.369 328.572 229.992 335.615 220.658 334.543C206.888 332.859 209.336 307.29 211.019 298.103H202.757C202.757 298.103 187.915 356.591 234.888 345.72C233.052 355.978 244.834 372.667 233.511 393.031C251.413 397.93 267.938 399.002 282.167 392.877C279.719 389.509 287.216 355.519 272.375 331.021C269.315 326.275 253.708 327.041 252.178 327.194Z" fill="#0056EC"/>
<path d="M249.27 305.912C250.647 306.218 252.178 306.524 252.943 307.749C253.402 308.514 253.402 309.433 253.402 310.352C253.708 309.433 254.626 308.821 255.697 308.821C256.615 308.974 257.533 309.739 257.533 310.811C257.533 311.27 257.38 311.73 257.227 312.036C256.768 313.108 256.309 314.026 255.697 314.945C257.38 315.557 258.757 320.61 259.675 322.141C262.582 321.376 268.855 318.926 269.467 308.821C269.773 304.074 268.243 298.409 263.194 295.347C259.522 293.05 253.555 293.05 249.423 294.122C246.057 295.041 240.702 298.409 243.15 302.237C244.221 304.074 246.975 305.299 249.27 305.912Z" fill="#EF832B"/>
<path d="M267.172 299.328C269.161 298.715 271.61 299.022 272.681 300.706C273.599 301.931 273.446 303.615 273.752 305.146C273.905 305.912 274.211 306.677 274.67 307.136C275.282 307.749 276.353 307.902 277.271 307.902C279.566 308.055 281.861 307.749 284.003 308.055C286.145 308.361 288.44 309.739 289.052 311.73C289.358 312.801 289.205 314.179 289.664 315.251C290.276 316.935 292.112 317.854 293.642 318.926C297.009 321.069 299.763 323.825 301.905 327.041C303.129 329.031 304.2 331.328 304.353 333.777C304.506 336.227 306.189 339.289 305.73 341.739C305.271 344.342 302.67 347.71 297.774 349.394C289.205 352.15 286.451 353.375 278.342 348.476C277.424 347.863 275.435 345.873 274.517 345.107C273.752 344.495 273.293 343.729 273.14 342.811C272.528 340.514 273.293 337.911 274.517 335.768C275.741 333.624 277.424 331.787 278.648 329.643C279.413 328.419 280.025 326.887 279.872 325.51C279.872 324.897 279.719 324.438 279.26 323.978C278.954 323.672 278.342 323.519 277.883 323.366C276.047 323.06 274.058 323.366 272.528 322.6C270.998 321.835 270.079 319.844 270.538 318.313C270.845 317.242 271.763 316.323 271.916 315.098C272.222 313.414 271.304 311.883 269.773 310.811C268.396 309.892 266.56 309.433 264.877 309.28C264.112 309.127 263.194 308.974 262.429 308.514C261.664 307.902 261.205 306.83 261.205 305.912C261.511 302.696 264.112 300.4 267.172 299.328Z" fill="#EF832B"/>
<path d="M265.643 307.902C275.894 310.199 262.889 319.844 268.397 324.591C269.927 325.969 271.763 325.51 273.599 325.816C280.637 326.734 276.812 331.481 276.353 335.308C276.353 335.921 277.271 335.921 277.271 335.462C277.883 332.859 280.178 329.797 278.954 327.041C277.883 324.591 275.282 324.897 272.987 324.897C270.233 324.744 267.173 324.897 268.244 319.385C268.397 318.16 269.468 316.935 269.927 315.864C270.539 314.486 270.845 313.261 270.539 311.883C270.08 309.433 267.938 308.055 265.643 307.596C265.337 307.29 265.184 307.902 265.643 307.902Z" fill="#EF832B"/>
<path d="M244.374 295.347C252.331 291.366 260.287 292.132 267.019 298.103C267.478 298.562 268.09 297.95 267.631 297.491C261.664 290.907 251.26 289.682 244.068 295.041C243.915 295.041 244.068 295.5 244.374 295.347Z" fill="#EF832B"/>
<path d="M511.524 320.304L508.158 327.194L516.574 330.715L517.492 322.6L511.524 320.304Z" fill="#FFB9A3"/>
<path d="M516.574 297.644C497.448 305.912 505.251 326.122 516.88 323.825C522.541 322.6 525.448 304.38 525.448 304.38L516.574 297.644Z" fill="#FFB9A3"/>
<path d="M523 294.888C522.388 293.663 521.776 292.438 520.705 291.672C519.634 290.907 518.104 290.601 517.032 291.519C515.808 292.744 516.573 294.888 517.797 296.113C516.726 296.266 515.349 295.5 514.584 296.266C513.972 296.878 514.125 297.95 514.584 298.715C515.502 300.553 516.879 302.084 518.563 303.156C517.644 303.768 516.42 304.84 517.032 305.758C517.185 306.065 517.491 306.218 517.644 306.524C517.95 307.136 517.645 307.902 517.338 308.514C516.726 309.586 516.114 310.505 515.349 311.423C515.961 310.505 517.645 310.964 518.104 311.883C518.563 312.955 518.104 314.179 517.492 314.945C517.032 315.404 516.573 315.864 515.961 315.864C515.502 316.017 513.054 323.213 514.89 324.591C517.185 326.275 524.683 324.744 525.754 322.907C526.825 324.132 528.508 325.05 530.038 324.744C531.568 324.438 532.792 322.447 532.027 321.069C533.71 321.682 535.852 321.069 537.076 319.691C538.3 318.313 538.453 316.17 537.535 314.486C538.453 314.179 538.606 312.955 538.453 312.036C537.994 310.045 536.464 308.514 534.475 307.902C535.393 307.902 536.158 306.983 536.311 305.912C536.311 304.993 535.852 304.074 535.24 303.309C533.404 301.165 531.262 300.553 528.661 300.093C525.601 299.787 524.224 297.031 523 294.888Z" fill="#4A49CA"/>
<path d="M505.098 499.594C505.098 499.594 493.929 504.953 492.398 506.637C492.398 506.637 514.431 507.556 516.114 506.637C517.798 505.565 512.595 499.594 512.595 499.594H505.098Z" fill="#0C2340"/>
<path d="M546.716 493.47C546.716 493.47 536.923 500.972 535.699 502.963C535.699 502.963 558.956 499.441 558.956 498.063C558.956 496.532 554.06 491.939 554.06 491.939L546.716 493.47Z" fill="#0C2340"/>
<path d="M515.961 395.787C515.502 398.083 500.202 458.561 544.115 494.848L556.814 491.939C556.814 491.939 541.973 478.006 535.087 453.202C528.508 429.624 533.71 427.327 537.688 414.313C542.126 399.92 538.759 389.509 538.759 389.509L515.961 395.787Z" fill="#D8742A"/>
<path d="M495 395.633C488.114 412.169 476.18 468.819 502.191 500.666H515.196C515.196 500.666 504.945 489.489 503.874 463.461C502.803 437.432 509.382 426.102 513.972 417.375C518.563 408.801 523 394.255 523 394.255L495 395.633Z" fill="#EF832B"/>
<path d="M485.819 292.591C482.3 304.687 481.229 327.194 498.519 336.227L510.147 333.471C510.147 333.471 489.338 322.6 493.776 294.888L485.819 292.591Z" fill="#0B43A4"/>
<path d="M453.994 286.467L463.021 285.395C463.021 285.395 461.95 323.06 505.404 326.275C538.607 328.725 541.208 391.04 541.208 391.04C530.497 398.236 512.596 400.38 489.492 398.849C489.492 398.849 491.022 354.294 487.349 342.198C487.349 342.045 451.087 330.715 453.994 286.467Z" fill="#0056EC"/>
<path d="M442.977 279.577C441.447 281.414 447.873 283.558 453.994 286.467L461.797 285.548C461.797 285.548 461.95 284.017 461.797 282.333C461.644 280.649 460.879 279.73 459.961 281.108C459.043 282.486 455.065 282.945 453.229 281.72C451.24 280.342 444.507 277.893 442.977 279.577Z" fill="#FFB9A3"/>
<path d="M485.819 292.591C482.912 289.682 483.677 289.988 483.677 289.988L492.551 291.979C492.551 291.979 494.54 287.692 496.07 287.538C497.754 287.385 494.846 290.448 495.458 291.672C496.07 292.744 493.622 295.041 493.622 295.041L485.819 292.591Z" fill="#FFB9A3"/>
<path d="M527.896 299.022C529.732 299.481 531.568 299.634 533.099 300.859C534.629 302.084 535.241 304.227 534.17 305.912C533.711 306.677 534.935 307.29 535.394 306.677C536.771 304.84 536.465 302.39 535.088 300.706C533.558 298.715 530.497 297.95 528.049 298.256C527.59 298.256 527.437 298.869 527.896 299.022Z" fill="#4A49CA"/>
<path d="M535.852 315.251C537.076 316.017 537.994 317.089 537.535 318.62C537.076 319.998 535.699 320.763 534.628 321.529C534.016 321.835 534.628 322.754 535.087 322.447C536.77 321.529 538.453 320.304 538.759 318.313C538.912 316.629 537.841 315.251 536.311 314.486C535.852 314.18 535.393 314.945 535.852 315.251Z" fill="#4A49CA"/>
<path d="M515.808 324.438C519.939 326.887 525.601 326.581 528.967 323.06C529.426 322.6 528.814 321.835 528.355 322.141C524.683 324.897 520.551 325.663 516.267 323.825C515.808 323.672 515.349 324.132 515.808 324.438Z" fill="#4A49CA"/>
<path d="M536.464 301.625C538.759 303.768 536.464 306.83 534.934 308.821C534.628 309.28 535.087 309.739 535.546 309.433C536.923 308.208 538.147 306.83 538.453 304.84C538.606 303.462 537.994 302.084 536.77 301.318C536.464 301.318 536.311 301.471 536.464 301.625Z" fill="#4A49CA"/>
<path d="M277.577 21.8946L274.058 13.1674L308.638 0L277.577 21.8946Z" fill="#0B43A4"/>
<path d="M279.413 16.5358L308.637 0L288.287 20.6697L279.413 16.5358Z" fill="#5193F4"/>
<path d="M266.102 9.64586L308.637 0L274.058 13.1674L266.102 9.64586Z" fill="#5193F4"/>
<path d="M279.413 16.5358L277.577 21.8946L282.932 18.22L279.413 16.5358Z" fill="#0056EC"/>
<path d="M273.599 20.8228C264.571 19.2917 252.331 28.4783 257.533 37.971C259.369 41.1863 268.55 39.8083 267.938 36.2868C267.632 34.6026 265.489 33.8371 263.806 33.9902C253.708 35.2151 253.249 43.6361 253.708 45.7796C256.003 56.9565 273.14 53.1288 278.801 51.5977" stroke="#C8DBFB" stroke-miterlimit="10" stroke-linecap="round" stroke-linejoin="round" stroke-dasharray="4 4"/>
</svg>
