<svg width="138" height="149" viewBox="0 0 138 149" fill="none" xmlns="http://www.w3.org/2000/svg">
<path d="M53.088 75.048H15.648L7.584 93H0.192L30.912 25.8H37.92L68.64 93H61.152L53.088 75.048ZM50.496 69.288L34.368 33.192L18.24 69.288H50.496ZM100.589 61.416L86.8605 75.336V93H79.7565V25.8H86.8605V66.408L126.317 25.8H134.477L105.389 56.232L136.493 93H128.045L100.589 61.416Z" fill="#353535"/>
<path d="M10.32 138.215C8.48533 138.215 6.72233 137.957 5.031 137.441C3.36833 136.896 2.064 136.223 1.118 135.42L2.494 133.012C3.44 133.757 4.62967 134.374 6.063 134.861C7.49633 135.32 8.987 135.549 10.535 135.549C12.599 135.549 14.1183 135.234 15.093 134.603C16.0963 133.944 16.598 133.026 16.598 131.851C16.598 131.02 16.3257 130.375 15.781 129.916C15.2363 129.429 14.5483 129.07 13.717 128.841C12.8857 128.583 11.782 128.339 10.406 128.11C8.57133 127.766 7.095 127.422 5.977 127.078C4.859 126.705 3.89867 126.089 3.096 125.229C2.322 124.369 1.935 123.179 1.935 121.66C1.935 119.768 2.72333 118.22 4.3 117.016C5.87667 115.812 8.06967 115.21 10.879 115.21C12.341 115.21 13.803 115.411 15.265 115.812C16.727 116.185 17.931 116.686 18.877 117.317L17.544 119.768C15.6807 118.478 13.459 117.833 10.879 117.833C8.92967 117.833 7.45333 118.177 6.45 118.865C5.47533 119.553 4.988 120.456 4.988 121.574C4.988 122.434 5.26033 123.122 5.805 123.638C6.37833 124.154 7.08067 124.541 7.912 124.799C8.74333 125.028 9.89 125.272 11.352 125.53C13.158 125.874 14.6057 126.218 15.695 126.562C16.7843 126.906 17.716 127.494 18.49 128.325C19.264 129.156 19.651 130.303 19.651 131.765C19.651 133.743 18.8197 135.32 17.157 136.495C15.523 137.642 13.244 138.215 10.32 138.215ZM37.2061 136.624C36.6328 137.14 35.9161 137.541 35.0561 137.828C34.2248 138.086 33.3504 138.215 32.4331 138.215C30.3118 138.215 28.6778 137.642 27.5311 136.495C26.3844 135.348 25.8111 133.729 25.8111 131.636V117.962H21.7691V115.382H25.8111V110.437H28.8641V115.382H35.7441V117.962H28.8641V131.464C28.8641 132.811 29.1938 133.843 29.8531 134.56C30.5411 135.248 31.5158 135.592 32.7771 135.592C33.4078 135.592 34.0098 135.492 34.5831 135.291C35.1851 135.09 35.7011 134.804 36.1311 134.431L37.2061 136.624ZM63.1458 115.382V138H60.2218V133.872C59.4192 135.248 58.3155 136.323 56.9108 137.097C55.5062 137.842 53.9008 138.215 52.0948 138.215C49.1422 138.215 46.8058 137.398 45.0858 135.764C43.3945 134.101 42.5488 131.679 42.5488 128.497V115.382H45.6018V128.196C45.6018 130.575 46.1895 132.381 47.3648 133.614C48.5402 134.847 50.2172 135.463 52.3958 135.463C54.7752 135.463 56.6528 134.746 58.0288 133.313C59.4048 131.851 60.0928 129.83 60.0928 127.25V115.382H63.1458ZM92.3365 106.094V138H89.4125V133.528C88.4951 135.047 87.2768 136.208 85.7575 137.011C84.2668 137.814 82.5755 138.215 80.6835 138.215C78.5621 138.215 76.6415 137.728 74.9215 136.753C73.2015 135.778 71.8541 134.417 70.8795 132.668C69.9048 130.919 69.4175 128.927 69.4175 126.691C69.4175 124.455 69.9048 122.463 70.8795 120.714C71.8541 118.965 73.2015 117.618 74.9215 116.672C76.6415 115.697 78.5621 115.21 80.6835 115.21C82.5181 115.21 84.1665 115.597 85.6285 116.371C87.1191 117.116 88.3375 118.22 89.2835 119.682V106.094H92.3365ZM80.9415 135.506C82.5181 135.506 83.9371 135.148 85.1985 134.431C86.4885 133.686 87.4918 132.639 88.2085 131.292C88.9538 129.945 89.3265 128.411 89.3265 126.691C89.3265 124.971 88.9538 123.437 88.2085 122.09C87.4918 120.743 86.4885 119.711 85.1985 118.994C83.9371 118.249 82.5181 117.876 80.9415 117.876C79.3361 117.876 77.8885 118.249 76.5985 118.994C75.3371 119.711 74.3338 120.743 73.5885 122.09C72.8718 123.437 72.5135 124.971 72.5135 126.691C72.5135 128.411 72.8718 129.945 73.5885 131.292C74.3338 132.639 75.3371 133.686 76.5985 134.431C77.8885 135.148 79.3361 135.506 80.9415 135.506ZM100.839 115.382H103.892V138H100.839V115.382ZM102.387 110.437C101.756 110.437 101.226 110.222 100.796 109.792C100.366 109.362 100.151 108.846 100.151 108.244C100.151 107.671 100.366 107.169 100.796 106.739C101.226 106.309 101.756 106.094 102.387 106.094C103.018 106.094 103.548 106.309 103.978 106.739C104.408 107.14 104.623 107.628 104.623 108.201C104.623 108.832 104.408 109.362 103.978 109.792C103.548 110.222 103.018 110.437 102.387 110.437ZM121.632 138.215C119.453 138.215 117.49 137.728 115.741 136.753C113.992 135.75 112.616 134.374 111.613 132.625C110.61 130.876 110.108 128.898 110.108 126.691C110.108 124.484 110.61 122.506 111.613 120.757C112.616 119.008 113.992 117.647 115.741 116.672C117.49 115.697 119.453 115.21 121.632 115.21C123.811 115.21 125.774 115.697 127.523 116.672C129.272 117.647 130.633 119.008 131.608 120.757C132.611 122.506 133.113 124.484 133.113 126.691C133.113 128.898 132.611 130.876 131.608 132.625C130.633 134.374 129.272 135.75 127.523 136.753C125.774 137.728 123.811 138.215 121.632 138.215ZM121.632 135.506C123.237 135.506 124.671 135.148 125.932 134.431C127.222 133.686 128.225 132.639 128.942 131.292C129.659 129.945 130.017 128.411 130.017 126.691C130.017 124.971 129.659 123.437 128.942 122.09C128.225 120.743 127.222 119.711 125.932 118.994C124.671 118.249 123.237 117.876 121.632 117.876C120.027 117.876 118.579 118.249 117.289 118.994C116.028 119.711 115.024 120.743 114.279 122.09C113.562 123.437 113.204 124.971 113.204 126.691C113.204 128.411 113.562 129.945 114.279 131.292C115.024 132.639 116.028 133.686 117.289 134.431C118.579 135.148 120.027 135.506 121.632 135.506Z" fill="#851111"/>
</svg>
