<svg id="1d7fb589-c17d-44f3-aec0-ac2a3805a883" data-name="Слой 1" xmlns="http://www.w3.org/2000/svg" viewBox="0 0 452 452"><defs><style>.c22a2449-d41e-456d-aa5e-0e4dfb784ff5{fill:none;stroke:#dc2d29;stroke-miterlimit:10;stroke-width:5px;}.b2a4c883-340d-4785-b06b-47a31157bf89{font-size:71.59px;fill:#dc2d29;font-family:MyriadPro-Regular, Myriad Pro;}</style></defs><title>text</title><circle class="c22a2449-d41e-456d-aa5e-0e4dfb784ff5" cx="226" cy="226" r="140.61"/><text class="b2a4c883-340d-4785-b06b-47a31157bf89" transform="translate(190.05 72.35) rotate(-7.46)">Г</text><text class="b2a4c883-340d-4785-b06b-47a31157bf89" transform="translate(218.46 68.04) rotate(4.12)">Р</text><text class="b2a4c883-340d-4785-b06b-47a31157bf89" transform="translate(253.2 70.22) rotate(16.66)">У</text><text class="b2a4c883-340d-4785-b06b-47a31157bf89" transform="translate(287.32 80.35) rotate(29.28)">З</text><text class="b2a4c883-340d-4785-b06b-47a31157bf89" transform="matrix(0.73, 0.68, -0.68, 0.73, 316.27, 95.4)">И</text><text class="b2a4c883-340d-4785-b06b-47a31157bf89" transform="translate(348.7 125.31) rotate(59.03)">Н</text><text class="b2a4c883-340d-4785-b06b-47a31157bf89" transform="translate(371.27 162.82) rotate(74.06)">С</text><text class="b2a4c883-340d-4785-b06b-47a31157bf89" transform="translate(382.1 200.15) rotate(87.72)">Ь</text><text class="b2a4c883-340d-4785-b06b-47a31157bf89" transform="translate(383.86 236.36) rotate(100.73)">К</text><text class="b2a4c883-340d-4785-b06b-47a31157bf89" transform="translate(378.01 271.98) rotate(115.4)">И</text><text class="b2a4c883-340d-4785-b06b-47a31157bf89" transform="translate(359.46 312) rotate(131.35)">Й</text><text class="b2a4c883-340d-4785-b06b-47a31157bf89" transform="matrix(-0.79, 0.62, -0.62, -0.79, 328.87, 344.84)"> </text><text class="b2a4c883-340d-4785-b06b-47a31157bf89" transform="translate(319.18 354.07) rotate(151.44)">С</text><text class="b2a4c883-340d-4785-b06b-47a31157bf89" transform="translate(282.78 373.5) rotate(165.45)">Т</text><text class="b2a4c883-340d-4785-b06b-47a31157bf89" transform="translate(256.36 381.61) rotate(176.95)">А</text><text class="b2a4c883-340d-4785-b06b-47a31157bf89" transform="translate(215.5 384.39) rotate(-167.81)">Н</text><text class="b2a4c883-340d-4785-b06b-47a31157bf89" transform="matrix(-0.88, -0.47, 0.47, -0.88, 172.73, 375.45)">Д</text><text class="b2a4c883-340d-4785-b06b-47a31157bf89" transform="translate(135.09 355.87) rotate(-137.05)">А</text><text class="b2a4c883-340d-4785-b06b-47a31157bf89" transform="translate(105 327.84) rotate(-123.22)">Р</text><text class="b2a4c883-340d-4785-b06b-47a31157bf89" transform="translate(85.38 298.14) rotate(-110.71)">Т</text><text class="b2a4c883-340d-4785-b06b-47a31157bf89" transform="translate(74.03 266.32) rotate(-102.04)"> </text><text class="b2a4c883-340d-4785-b06b-47a31157bf89" transform="translate(70.18 253.46) rotate(-92.89)">Я</text><text class="b2a4c883-340d-4785-b06b-47a31157bf89" transform="translate(68.05 217.18) rotate(-79.83)">К</text><text class="b2a4c883-340d-4785-b06b-47a31157bf89" transform="translate(73.02 182.76) rotate(-65.26)">О</text><text class="b2a4c883-340d-4785-b06b-47a31157bf89" transform="matrix(0.64, -0.76, 0.76, 0.64, 92.53, 140.74)">С</text><text class="b2a4c883-340d-4785-b06b-47a31157bf89" transform="translate(119.38 109.39) rotate(-36.02)">Т</text><text class="b2a4c883-340d-4785-b06b-47a31157bf89" transform="translate(146.99 90.03) rotate(-27.09)">І</text><circle class="c22a2449-d41e-456d-aa5e-0e4dfb784ff5" cx="226" cy="226" r="223.5"/></svg>